<?xml version="1.0"?>
<svg xmlns="http://www.w3.org/2000/svg" id="Capa_1" enable-background="new 0 0 510 510" height="512px" viewBox="0 0 510 510" width="512px"><g><g><path d="m0 67.5v210h510v-210zm420 180h-330v-30h330zm60 0h-30v-60h-390v60h-30v-150h450z" data-original="#000000" class="active-path" data-old_color="#000000" fill="#007DFE"/><path d="m60 127.5h30v30h-30z" data-original="#000000" class="active-path" data-old_color="#000000" fill="#007DFE"/><path d="m120 127.5h30v30h-30z" data-original="#000000" class="active-path" data-old_color="#000000" fill="#007DFE"/><path d="m390 127.5h60v30h-60z" data-original="#000000" class="active-path" data-old_color="#000000" fill="#007DFE"/><path d="m60 307.5h30v45h-30z" data-original="#000000" class="active-path" data-old_color="#000000" fill="#007DFE"/><path d="m420 307.5h30v45h-30z" data-original="#000000" class="active-path" data-old_color="#000000" fill="#007DFE"/><path d="m120 307.5h30v75h-30z" data-original="#000000" class="active-path" data-old_color="#000000" fill="#007DFE"/><path d="m360 307.5h30v75h-30z" data-original="#000000" class="active-path" data-old_color="#000000" fill="#007DFE"/><path d="m180 307.5h30v105h-30z" data-original="#000000" class="active-path" data-old_color="#000000" fill="#007DFE"/><path d="m300 307.5h30v105h-30z" data-original="#000000" class="active-path" data-old_color="#000000" fill="#007DFE"/><path d="m240 307.5h30v135h-30z" data-original="#000000" class="active-path" data-old_color="#000000" fill="#007DFE"/></g></g> </svg>
