<?xml version="1.0"?>
<svg xmlns="http://www.w3.org/2000/svg" id="Layer_1" enable-background="new 0 0 512 512" height="512px" viewBox="0 0 512 512" width="512px"><g><path d="m464 400v96c0 8.84-7.16 16-16 16h-31c-26.47 0-48-21.53-48-48 0-.122.078 0-1 0v-32c.34 0 .67.03 1 .05 0-26.613 21.604-48.05 48-48.05h31c8.84 0 16 7.16 16 16z" fill="#8bc4ff" data-original="#8BC4FF"/><path d="m480 16v320c0 8.84-7.16 16-16 16h-448c-8.84 0-16-7.16-16-16v-320c0-8.84 7.16-16 16-16h448c8.84 0 16 7.16 16 16z" fill="#a2d0ff" data-original="#A2D0FF"/><path d="m480 16v288h-416c-8.84 0-16-7.16-16-16v-288h416c8.84 0 16 7.16 16 16z" fill="#b9dcff" data-original="#B9DCFF"/><path d="m411.314 92.687-24-24c-3-3.001-7.07-4.687-11.314-4.687h-48c-4.244 0-8.313 1.686-11.314 4.687l-24 24c-3 3.001-4.686 7.07-4.686 11.313v40c0 8.837 7.164 16 16 16h96c8.836 0 16-7.163 16-16v-40c0-4.243-1.686-8.312-4.686-11.313z" fill="#8bc4ff" data-original="#8BC4FF"/><path d="m411.314 220.687-24-24c-3-3.001-7.07-4.687-11.314-4.687h-48c-4.244 0-8.313 1.686-11.314 4.687l-24 24c-3 3.001-4.686 7.07-4.686 11.313v40c0 8.837 7.164 16 16 16h96c8.836 0 16-7.163 16-16v-40c0-4.243-1.686-8.312-4.686-11.313z" fill="#8bc4ff" data-original="#8BC4FF"/><circle cx="160" cy="160" fill="#a2d0ff" r="96" data-original="#A2D0FF"/><g fill="#2e58ff"><path d="m411.31 92.69-24-24c-3-3-7.07-4.69-11.31-4.69h-48c-4.24 0-8.31 1.69-11.31 4.69l-24 24c-3 3-4.69 7.07-4.69 11.31v40c0 8.84 7.16 16 16 16h96c8.84 0 16-7.16 16-16v-40c0-4.24-1.69-8.31-4.69-11.31zm-27.31 35.31h-64v-17.37l14.63-14.63h34.74l14.63 14.63z" data-original="#2E58FF" class="active-path" style="fill:#007DFE" data-old_color="#2E58FF"/><path d="m411.31 220.69-24-24c-3-3-7.07-4.69-11.31-4.69h-48c-4.24 0-8.31 1.69-11.31 4.69l-24 24c-3 3-4.69 7.07-4.69 11.31v40c0 8.84 7.16 16 16 16h96c8.84 0 16-7.16 16-16v-40c0-4.24-1.69-8.31-4.69-11.31zm-27.31 35.31h-64v-17.37l14.63-14.63h34.74l14.63 14.63z" data-original="#2E58FF" class="active-path" style="fill:#007DFE" data-old_color="#2E58FF"/><path d="m160.28 64c-54.081 0-96.132 43.759-96.28 95.74 0 53.736 43.488 96.23 95.94 96.26 53.076 0 95.91-43.06 96.06-95.74 0-53.849-43.555-96.102-95.72-96.26zm-29.54 39.11c-6.34 22.01-.66 38.66 7.11 52.16-11.54 6.3-22.57 7.54-41.29-3.61 2.77-21.18 15.93-39.13 34.18-48.55zm20.92 120.33c-21.19-2.77-39.13-15.93-48.56-34.19 19.175 5.525 35.526 2.484 52.17-7.1 6.3 11.54 7.54 22.57-3.61 41.29zm16.68-126.88c21.18 2.77 39.13 15.93 48.55 34.18-22.01-6.34-38.66-.66-52.16 7.11-6.3-11.54-7.54-22.57 3.61-41.29zm20.92 120.33c6.34-22.01.66-38.66-7.11-52.16 11.54-6.3 22.57-7.54 41.29 3.61-2.77 21.18-15.93 39.13-34.18 48.55z" data-original="#2E58FF" class="active-path" style="fill:#007DFE" data-old_color="#2E58FF"/><path d="m496 464h-32v-32h32c8.84 0 16-7.16 16-16s-7.16-16-16-16h-32c0-8.84-7.16-16-16-16h-31c-26.402 0-48 21.442-48 48.05-1.277-.077 11.126-.05-233-.05-22.06 0-40-17.94-40-40v-40h368c8.84 0 16-7.16 16-16v-320c0-8.84-7.16-16-16-16h-448c-8.84 0-16 7.16-16 16v320c0 8.84 7.16 16 16 16h48v40c0 39.7 32.3 72 72 72 203.15 0 233-.103 233 0 0 26.47 21.53 48 48 48h31c8.84 0 16-7.16 16-16h32c8.84 0 16-7.16 16-16s-7.16-16-16-16zm-416-192c-8.84 0-16 7.16-16 16v32h-32v-288h416v288h-352v-32c0-8.84-7.16-16-16-16zm352 208h-15c-8.82 0-16-7.18-16-16v-32c0-8.82 7.18-16 16-16h15z" data-original="#2E58FF" class="active-path" style="fill:#007DFE" data-old_color="#2E58FF"/></g></g> </svg>
