<?xml version="1.0"?>
<svg xmlns="http://www.w3.org/2000/svg" id="Capa_1" enable-background="new 0 0 512 512" height="512px" viewBox="0 0 512 512" width="512px" class=""><g><g><path d="m479 145v-56c0-16.542-13.458-30-30-30h-98c-16.542 0-30 13.458-30 30v56z" data-original="#000000" class="active-path" data-old_color="#000000" fill="#007DFE"/><path d="m321 175h158v28h-158z" data-original="#000000" class="active-path" data-old_color="#000000" fill="#007DFE"/><path d="m33 293v204c0 8.284 6.716 15 15 15s15-6.716 15-15v-137.796l194 .593v112.203c0 8.284 6.716 15 15 15h9v10c0 8.284 6.716 15 15 15s15-6.716 15-15v-10h114v10c0 8.284 6.716 15 15 15s15-6.716 15-15v-10h9c8.284 0 15-6.716 15-15v-179z" data-original="#000000" class="active-path" data-old_color="#000000" fill="#007DFE"/><path d="m497 233h-267.628c-2.689-12.978-8.717-27.024-18.051-42h45.679c16.542 0 30-13.458 30-30v-131c0-16.542-13.458-30-30-30h-194c-16.542 0-30 13.458-30 30v131c0 16.542 13.458 30 30 30h45.679c-9.333 14.976-15.362 29.022-18.051 42h-75.628c-8.284 0-15 6.716-15 15s6.716 15 15 15h482c8.284 0 15-6.716 15-15s-6.716-15-15-15z" data-original="#000000" class="active-path" data-old_color="#000000" fill="#007DFE"/></g></g> </svg>
